<svg width="394" height="96" viewBox="0 0 394 96" fill="none" xmlns="http://www.w3.org/2000/svg">
<path d="M0.045455 0.909088H27.9091L51.5455 58.5455H52.6364L76.2727 0.909088H104.136V94H82.2273V36.8182H81.4546L59.0909 93.4091H45.0909L22.7273 36.5H21.9545V94H0.045455V0.909088ZM174.489 0.909088H196.943V60.9545C196.943 67.8939 195.292 73.9394 191.989 79.0909C188.686 84.2121 184.08 88.1818 178.17 91C172.261 93.7879 165.398 95.1818 157.58 95.1818C149.67 95.1818 142.761 93.7879 136.852 91C130.943 88.1818 126.352 84.2121 123.08 79.0909C119.807 73.9394 118.17 67.8939 118.17 60.9545V0.909088H140.67V59C140.67 62.2121 141.367 65.0758 142.761 67.5909C144.186 70.1061 146.17 72.0758 148.716 73.5C151.261 74.9242 154.216 75.6364 157.58 75.6364C160.943 75.6364 163.883 74.9242 166.398 73.5C168.943 72.0758 170.928 70.1061 172.352 67.5909C173.777 65.0758 174.489 62.2121 174.489 59V0.909088ZM290.273 0.909088V94H271.182L234.136 40.2727H233.545V94H211.045V0.909088H230.409L267.045 54.5455H267.818V0.909088H290.273ZM324.557 94H300.375L331.784 0.909088H361.739L393.148 94H368.966L347.102 24.3636H346.375L324.557 94ZM321.33 57.3636H371.875V74.4545H321.33V57.3636Z" fill="white"/>
</svg>
